<?xml version="1.0" encoding="UTF-8"?><svg id="Layer_1" xmlns="http://www.w3.org/2000/svg" viewBox="0 0 498.64 704.39"><polygon points="435.56 1 1 1 1 703.39 497.64 703.39 497.64 88.8 435.56 1" fill="none" stroke="#010101" stroke-linecap="square" stroke-width="2"/><polyline points="435.56 1 435.56 88.8 497.64 88.8" fill="none" stroke="#010101" stroke-width="2"/><path d="M218.02,334.77c4.32,0,6.96.72,9.02,2.54,1.97,1.73,3.12,4.32,3.12,7.3s-1.25,5.57-3.46,7.34c-2.16,1.73-4.8,2.5-8.98,2.5h-7.54v15.17h-2.88v-34.85h10.71ZM225.13,349.79c1.3-1.3,2.02-3.17,2.02-5.23,0-2.45-.96-4.51-2.74-5.81-1.68-1.2-3.36-1.49-7.1-1.49h-7.1v14.69h7.73c3.55,0,5.57-.53,7.2-2.16Z" fill="#231f20"/><path d="M259.5,364.72c-2.74,3.26-6.48,4.9-13.83,4.9h-9.41v-34.85h9.41c7.34,0,11.09,1.63,13.83,4.9,2.64,3.12,4.13,7.49,4.13,12.53s-1.49,9.41-4.13,12.53ZM256.81,340.77c-2.3-2.59-5.71-3.46-11.14-3.46h-6.53v29.76h6.53c5.47,0,8.78-.86,11.14-3.46,2.45-2.74,3.84-6.77,3.84-11.42s-1.34-8.59-3.84-11.42Z" fill="#231f20"/><path d="M291.32,334.77v2.54h-17.62v13.54h16.71v2.54h-16.71v16.23h-2.88v-34.85h20.5Z" fill="#231f20"/></svg>